<?xml version="1.0" encoding="UTF-8"?>
<svg width="200" height="200" viewBox="0 0 200 200" xmlns="http://www.w3.org/2000/svg">
  <defs>
    <linearGradient id="mainGradient" x1="0%" y1="0%" x2="100%" y2="100%">
      <stop offset="0%" stop-color="#4FD1C5" />
      <stop offset="100%" stop-color="#2B6CB0" />
    </linearGradient>
    
    <filter id="shadow" x="-20%" y="-20%" width="140%" height="140%">
      <feDropShadow dx="0" dy="4" stdDeviation="6" flood-color="#1A365D" flood-opacity="0.2"/>
    </filter>
  </defs>

  <!-- Основной контейнер -->
  <g transform="translate(100 100)" filter="url(#shadow)">
    <!-- Гексагон -->
    <path
      d="M0 -70
         L60 -35
         L60 35
         L0 70
         L-60 35
         L-60 -35
         Z"
      fill="white"
      stroke="url(#mainGradient)"
      stroke-width="4"
    />

    <!-- Буква R -->
    <path
      d="M-20 -30
         L20 -30
         Q35 -30 35 -15
         L35 0
         Q35 15 20 15
         L-10 15
         L20 40
         L0 40
         L-20 15
         Z
         M-10 -15
         L-10 0
         L10 0
         Q15 0 15 -7.5
         Q15 -15 10 -15
         Z"
      fill="url(#mainGradient)"
    />
  </g>
</svg> 